<?xml version="1.0" standalone="no"?>
<!DOCTYPE svg PUBLIC "-//W3C//DTD SVG 20010904//EN"
 "http://www.w3.org/TR/2001/REC-SVG-20010904/DTD/svg10.dtd">
<svg version="1.0" xmlns="http://www.w3.org/2000/svg"
 width="512.000000pt" height="512.000000pt" viewBox="0 0 512.000000 512.000000"
 preserveAspectRatio="xMidYMid meet">
<metadata>
Created by potrace 1.14, written by Peter Selinger 2001-2017
</metadata>
<g transform="translate(0.000000,512.000000) scale(0.100000,-0.100000)"
fill="#000000" stroke="none">
<path d="M2368 5115 c-2 -2 -32 -5 -68 -9 -56 -5 -188 -25 -270 -41 -84 -16
-271 -69 -356 -100 -356 -133 -651 -322 -920 -590 -214 -213 -358 -412 -485
-670 -78 -159 -91 -189 -139 -335 -95 -285 -129 -514 -124 -830 3 -189 5 -233
19 -315 2 -16 7 -48 11 -70 21 -145 98 -418 161 -570 88 -213 223 -441 370
-625 73 -92 246 -269 332 -340 29 -25 58 -50 65 -55 25 -23 186 -135 251 -175
170 -105 439 -228 582 -266 10 -2 77 -20 149 -38 125 -32 157 -39 257 -52 23
-3 56 -7 72 -10 17 -3 122 -7 235 -9 368 -6 665 48 998 181 394 158 743 413
1016 743 42 51 89 112 104 135 15 22 29 43 32 46 36 32 193 320 249 455 57
135 136 390 146 465 1 8 6 33 10 55 12 64 14 74 21 134 3 31 8 65 11 76 3 11
6 110 8 220 3 178 -8 337 -29 450 -3 17 -11 57 -17 90 -26 147 -94 363 -159
510 -39 88 -77 166 -112 228 -23 39 -47 81 -53 92 -79 142 -206 284 -290 325
-66 32 -168 32 -239 0 -112 -51 -188 -165 -189 -284 0 -87 15 -124 108 -266
45 -69 103 -165 128 -215 53 -104 117 -260 117 -284 0 -9 4 -21 8 -26 15 -16
67 -237 77 -321 3 -27 8 -65 10 -84 6 -38 6 -297 1 -345 -12 -109 -20 -160
-37 -240 -18 -84 -59 -224 -78 -270 -5 -11 -15 -36 -22 -55 -22 -62 -109 -231
-156 -304 -93 -145 -259 -331 -394 -441 -251 -206 -594 -365 -889 -411 -19 -3
-46 -7 -60 -10 -106 -18 -323 -24 -470 -11 -134 12 -391 69 -475 107 -11 5
-65 28 -119 51 -304 130 -609 385 -803 669 -116 171 -222 407 -273 610 -24 92
-24 95 -35 158 -4 23 -9 54 -12 70 -2 15 -6 110 -8 212 -3 180 7 304 35 425 7
28 14 61 16 75 11 56 85 262 126 350 154 328 416 625 728 825 186 119 505 236
741 271 30 4 160 8 289 9 214 1 239 3 281 22 182 82 247 295 140 461 -44 69
-131 123 -226 141 -39 7 -390 12 -397 6z"/>
<path d="M3545 4829 c-74 -10 -136 -43 -188 -98 -64 -68 -88 -126 -89 -216 -2
-186 149 -330 337 -321 117 6 218 74 272 183 23 48 28 71 28 133 0 66 -5 85
-33 143 -62 125 -191 195 -327 176z"/>
<path d="M1449 3225 c-54 -28 -57 -107 -6 -133 29 -15 61 -20 192 -27 130 -8
150 -17 160 -77 4 -24 9 -52 12 -63 2 -11 8 -42 13 -70 6 -27 12 -61 15 -75 3
-14 9 -50 15 -80 6 -30 12 -66 15 -80 5 -27 22 -115 31 -165 18 -104 42 -139
96 -137 44 1 73 33 72 80 -1 32 -37 233 -64 362 -5 25 -12 60 -15 77 -14 84
-45 232 -55 258 -13 36 -55 82 -90 100 -32 16 -80 23 -210 31 -58 3 -116 7
-130 9 -14 2 -37 -3 -51 -10z"/>
<path d="M2182 3043 c-4 -1 -19 -4 -34 -7 -38 -9 -62 -47 -54 -89 12 -64 -14
-62 691 -63 352 0 651 -4 665 -9 49 -16 62 -66 39 -149 -6 -21 -13 -48 -15
-60 -8 -33 -12 -49 -62 -246 l-47 -185 -95 -2 c-52 -1 -350 -2 -661 -3 -531
-1 -567 -2 -596 -20 -17 -10 -32 -29 -35 -44 -8 -40 49 -245 80 -290 15 -22
47 -50 72 -63 l45 -23 590 -1 c453 -1 596 2 617 11 33 16 51 61 38 96 -20 50
-31 51 -641 51 -312 0 -572 4 -579 8 -13 8 -24 35 -34 82 l-7 33 652 2 652 3
20 28 c17 22 95 297 121 422 2 11 9 40 16 65 7 25 14 56 17 69 2 13 10 50 17
82 29 123 -23 232 -134 282 -44 20 -63 21 -688 21 -353 1 -645 0 -650 -1z"/>
</g>
</svg>
