<svg xmlns="http://www.w3.org/2000/svg" width="310" height="56" viewBox="0 0 310 56">
  <g id="EasyBox" transform="translate(-9133 -17510)">
    <rect id="Rectangle_1817" data-name="Rectangle 1817" width="310" height="56" transform="translate(9133 17510)" fill="none"/>
    <g id="EasyBox-2" data-name="EasyBox" transform="translate(8528 16192)">
      <rect id="LogoBG" width="191" height="56" transform="translate(605 1318)" fill="rgba(255,255,255,0)"/>
      <g id="Group_1399" data-name="Group 1399" transform="translate(413 1171.801)">
        <path id="Path_347" data-name="Path 347" d="M254.382,176.151a1.8,1.8,0,0,1,1.367.572,1.694,1.694,0,0,1,.572,1.271,1.665,1.665,0,0,1-.572,1.3,1.915,1.915,0,0,1-1.367.508H243.737a1.852,1.852,0,0,1-1.939-1.939V159.5a1.852,1.852,0,0,1,.54-1.366,1.9,1.9,0,0,1,1.4-.572h10.646a1.852,1.852,0,0,1,1.367.54,1.842,1.842,0,0,1,.032,2.638,2.035,2.035,0,0,1-1.4.477H245.77v5.4h7.182a1.852,1.852,0,0,1,1.367.54,1.842,1.842,0,0,1,.032,2.638,2.035,2.035,0,0,1-1.4.477H245.77v5.879Zm19.044-13.665a1.852,1.852,0,0,1,1.367.54,1.892,1.892,0,0,1,.54,1.4v13.442a1.96,1.96,0,0,1-.54,1.4,2,2,0,0,1-2.733,0,2.035,2.035,0,0,1-.54-1.366,6.663,6.663,0,0,1-2.161,1.589,6.5,6.5,0,0,1-2.828.636,7.342,7.342,0,0,1-3.972-1.112,8.147,8.147,0,0,1-2.828-3.146,10.663,10.663,0,0,1,0-9.089,7.719,7.719,0,0,1,2.765-3.146,7.083,7.083,0,0,1,3.909-1.144,7.183,7.183,0,0,1,2.86.572,7.275,7.275,0,0,1,2.256,1.4v-.032a1.852,1.852,0,0,1,.54-1.366A1.8,1.8,0,0,1,273.426,162.486Zm-6.419,14.142a4.263,4.263,0,0,0,3.369-1.494,6.232,6.232,0,0,0,0-7.627,4.447,4.447,0,0,0-6.705,0,5.666,5.666,0,0,0-1.3,3.813,5.756,5.756,0,0,0,1.271,3.813A4.263,4.263,0,0,0,267.007,176.627Zm11.475.54a1.544,1.544,0,0,1-.286-.953,1.807,1.807,0,0,1,1.748-1.684,1.793,1.793,0,0,1,1.271.6,6.783,6.783,0,0,0,1.97,1.462,6.033,6.033,0,0,0,2.511.477q2.479-.1,2.479-1.875a1.516,1.516,0,0,0-.858-1.4,11.49,11.49,0,0,0-2.606-.953,23.619,23.619,0,0,1-3.019-1.017,5.553,5.553,0,0,1-2-1.525,4.393,4.393,0,0,1-.826-2.8,4.192,4.192,0,0,1,.858-2.638,5.708,5.708,0,0,1,2.288-1.748,7.352,7.352,0,0,1,3.019-.636,9.23,9.23,0,0,1,3.241.6,5.638,5.638,0,0,1,2.542,1.78,1.767,1.767,0,0,1,.413,1.144,1.476,1.476,0,0,1-.6,1.208,1.6,1.6,0,0,1-1.017.35,1.549,1.549,0,0,1-1.144-.445,4.009,4.009,0,0,0-1.494-1.112,4.778,4.778,0,0,0-2.034-.413q-2.415,0-2.415,1.748a1.549,1.549,0,0,0,.445,1.144,3.381,3.381,0,0,0,1.112.667q.7.222,1.939.572a21.018,21.018,0,0,1,2.86.985,4.909,4.909,0,0,1,1.939,1.557,4.461,4.461,0,0,1,.794,2.765,4.3,4.3,0,0,1-.922,2.733,5.876,5.876,0,0,1-2.383,1.748,7.526,7.526,0,0,1-2.955.6,10.763,10.763,0,0,1-3.909-.7A6.5,6.5,0,0,1,278.482,177.168ZM307.414,162.8a1.8,1.8,0,0,1,1.367.572,1.852,1.852,0,0,1,.54,1.366v13.506q0,4.131-2.224,6.006a8.82,8.82,0,0,1-5.943,1.907,13.525,13.525,0,0,1-2.225-.191,7.788,7.788,0,0,1-1.811-.445q-1.557-.667-1.557-1.843a1.634,1.634,0,0,1,.1-.508,2.107,2.107,0,0,1,.636-1.081,1.689,1.689,0,0,1,1.017-.35,1.9,1.9,0,0,1,.6.1q.222.1.763.318a7.5,7.5,0,0,0,1.176.35,5.351,5.351,0,0,0,1.3.159,4.705,4.705,0,0,0,3.305-.985,4.242,4.242,0,0,0,1.08-3.305v-.318a6.2,6.2,0,0,1-5.148,2.066,5.572,5.572,0,0,1-2.924-.763,5.393,5.393,0,0,1-1.97-2.161,7.01,7.01,0,0,1-.7-3.178v-9.279a1.852,1.852,0,0,1,.54-1.366,1.918,1.918,0,0,1,2.733,0,1.852,1.852,0,0,1,.54,1.366v8.135a4.068,4.068,0,0,0,.858,2.892,3.564,3.564,0,0,0,2.574.858,3.307,3.307,0,0,0,2.542-.953,3.94,3.94,0,0,0,.922-2.8v-8.135a1.852,1.852,0,0,1,.54-1.366A1.8,1.8,0,0,1,307.414,162.8Zm19.7,4.672a6.287,6.287,0,0,1,2.733,2.034,5.516,5.516,0,0,1,1.08,3.527q0,3.782-2.161,5.275a8.828,8.828,0,0,1-5.148,1.494h-7.913a1.852,1.852,0,0,1-1.939-1.939V159.5a1.852,1.852,0,0,1,.54-1.366,1.9,1.9,0,0,1,1.4-.572h8.008q6.038,0,6.038,5.657a4.585,4.585,0,0,1-2.638,4.258Zm-1.494-3.559a2.56,2.56,0,0,0-.667-1.939,2.383,2.383,0,0,0-1.811-.667H317.9v4.958h5.339a2.375,2.375,0,0,0,1.652-.636A2.158,2.158,0,0,0,325.62,163.916Zm-2,12.235a3.211,3.211,0,0,0,2.32-.794,3.007,3.007,0,0,0,.858-2.32,2.6,2.6,0,0,0-.985-2.447,4.739,4.739,0,0,0-2.415-.572h-5.5v6.133Zm26.958-4.83a9.171,9.171,0,0,1-1.144,4.576,8.082,8.082,0,0,1-3.146,3.114,9.139,9.139,0,0,1-8.739,0,8.145,8.145,0,0,1-3.114-3.114,9.171,9.171,0,0,1-1.144-4.576,9,9,0,0,1,1.144-4.544,8.085,8.085,0,0,1,3.114-3.146,8.917,8.917,0,0,1,8.739,0,8.023,8.023,0,0,1,3.146,3.146A8.995,8.995,0,0,1,350.576,171.32Zm-3.813,0a5.621,5.621,0,0,0-.667-2.765,4.624,4.624,0,0,0-1.748-1.907,4.5,4.5,0,0,0-2.415-.667,4.667,4.667,0,0,0-2.447.667,4.923,4.923,0,0,0-1.748,1.907,6.331,6.331,0,0,0,0,5.53,4.981,4.981,0,0,0,1.748,1.875,4.667,4.667,0,0,0,2.447.667,4.5,4.5,0,0,0,2.415-.667,4.67,4.67,0,0,0,1.748-1.875A5.621,5.621,0,0,0,346.762,171.32Zm19.52,5.466a1.767,1.767,0,0,1,.413,1.144,1.818,1.818,0,0,1-.6,1.366,1.864,1.864,0,0,1-2.892-.254l-3.813-4.735-3.718,4.735a2.124,2.124,0,0,1-.7.6,1.822,1.822,0,0,1-.826.191,1.949,1.949,0,0,1-1.271-.508,1.506,1.506,0,0,1-.6-1.176,1.861,1.861,0,0,1,.477-1.208l4.417-5.4-4.576-5.688a1.819,1.819,0,0,1,.159-2.479,1.921,1.921,0,0,1,2.924.222l3.909,4.862,3.623-4.8a1.805,1.805,0,0,1,1.525-.858,1.673,1.673,0,0,1,1.271.54,1.571,1.571,0,0,1,.54,1.176,1.894,1.894,0,0,1-.445,1.239l-4.385,5.339Z" transform="translate(16.141 3.099)" fill="#1a2ad1"/>
        <path id="Path_348" data-name="Path 348" d="M228.788,157.528a3.293,3.293,0,1,0-2.329-.965A3.3,3.3,0,0,0,228.788,157.528ZM244.4,173.834c0-.118,0-.236-.008-.354,0-.15-.005-.3-.017-.45,0-.1-.009-.208-.015-.311-.009-.155-.02-.311-.032-.466-.008-.1-.016-.208-.025-.314-.013-.147-.028-.294-.042-.44-.013-.118-.026-.237-.041-.355s-.029-.245-.048-.38-.04-.286-.061-.426c-.015-.094-.029-.189-.045-.283-.029-.179-.06-.358-.093-.535l-.032-.172v-.021c-.04-.215-.083-.429-.13-.644v-.032c-.081-.372-.167-.742-.262-1.11-.025-.094-.05-.187-.074-.277l-.025-.073a26.409,26.409,0,0,0-4.005-8.325l-.168-.23a6.021,6.021,0,0,0-1.8-1.486,3.238,3.238,0,0,0-3.583,5.091l-.011.009a20.647,20.647,0,0,1,3.892,9.973c.009.091.022.184.03.283a20.286,20.286,0,0,1-2.357,11.291,19.61,19.61,0,0,1-3.334,4.368,20.159,20.159,0,0,1-8.649,5.033c-.395.109-.793.2-1.2.283a19.9,19.9,0,0,1-12.7-1.513l-.019-.008c-.126-.061-.252-.123-.377-.188l-.089-.045-.327-.173-.111-.061c-.106-.058-.211-.118-.316-.177l-.089-.057c-.117-.068-.232-.142-.347-.205l-.016-.011q-.808-.495-1.581-1.078a19.943,19.943,0,0,1-3.373-3.234l-.009-.011c-.093-.113-.183-.226-.271-.34l-.079-.1-.192-.25-.142-.187-.124-.173c-.061-.086-.124-.172-.184-.26l-.068-.11c-.074-.109-.146-.217-.217-.326l-.032-.049q-.121-.189-.238-.377v-.012q-.252-.413-.486-.837c-.075-.138-.15-.278-.221-.417l-.028-.053c-.062-.122-.123-.245-.184-.369l-.072-.142q-.066-.141-.127-.27c-.042-.086-.089-.189-.142-.31l-.049-.111a19.772,19.772,0,0,1,3.049-20.549,20.314,20.314,0,0,1,5.331-4.5,19.218,19.218,0,0,1,4.151-1.674v-.013a3.291,3.291,0,0,0,.567-.242c.336-.086.677-.159,1.018-.226a19.064,19.064,0,0,1,5.6-.258v-.013a3.234,3.234,0,0,0,2.274-5.718,5.942,5.942,0,0,0-1.7-.747c-.425-.042-.336-.024-.767-.046a26.44,26.44,0,0,0-8.709,1h-.07c-.416.114-.323.1-.732.23q-.93.3-1.831.675l-.032.013c-.213.089-.426.179-.638.273l-.119.053q-.284.125-.559.258l-.171.082c-.173.083-.344.169-.515.257l-.188.1q-.256.133-.508.274l-.171.094c-.183.1-.363.208-.543.315l-.109.075c-.209.126-.418.256-.625.388h-.011a26.083,26.083,0,0,0-11.068,29.116c.021.079.044.158.066.237l.009.029a26.262,26.262,0,0,0,1.614,4.219,25.708,25.708,0,0,0,5.365,7.379,26.509,26.509,0,0,0,4.174,3.264l.026.017c.167.106.335.211.5.311a26.05,26.05,0,0,0,11.3,3.625h.068c.18.015.361.026.542.037l.175.011.441.019.256.008h1.341l.342-.012.307-.012.388-.023.248-.017c.162-.012.322-.026.483-.041l.143-.013a26.273,26.273,0,0,0,8.455-2.3c.189-.086.375-.176.557-.267a26.219,26.219,0,0,0,14.568-22.02v-.142c.009-.2.019-.395.024-.592v-1.132" transform="translate(0 0)" fill="#3be5bf"/>
        <path id="Path_349" data-name="Path 349" d="M211.484,177.431a2.1,2.1,0,0,1-2.271-1.7c-.142-.5-.269-1-.405-1.5-.23-.87.087-1.278,1-1.286l12.529-.057h.644c.384-1.524.761-3.016,1.135-4.51.081-.319.159-.637.233-.959.172-.784-.154-1.2-.957-1.2H210.917c-.616,0-.994-.315-1.008-.808s.373-.836.977-.836c4.228,0,8.456-.012,12.682,0a2.426,2.426,0,0,1,2.423,2.979c-.478,2.111-1.035,4.2-1.561,6.3-.135.528-.511.682-1.021.682q-4.86,0-9.72.025H210.6c.073.283.142.49.177.708.068.426.313.556.726.553,2.651-.012,5.3,0,7.947,0h3.122c.658,0,1.037.316,1.03.836s-.379.8-1.049.8Zm-3.427-6.129c-.412-2.088-.3-1.666-.71-3.755-.165-.851-.338-1.7-.49-2.554a.617.617,0,0,0-.208-.429.586.586,0,0,0-.211-.12.6.6,0,0,0-.241-.029c-.812-.036-1.625-.106-2.435-.175a.867.867,0,0,1-.343-.058.853.853,0,0,1-.29-.192.824.824,0,0,1-.191-.291.736.736,0,0,1,.046-.673.888.888,0,0,1,.229-.262.858.858,0,0,1,.661-.16c.448.024.9.064,1.345.1s.863.057,1.295.1a2.014,2.014,0,0,1,1.888,1.655c.6,3.022.667,3.531,1.246,6.557a.823.823,0,0,1-.331.892.832.832,0,0,1-.311.127.785.785,0,0,1-.158.016.846.846,0,0,1-.793-.742Z" transform="translate(3.527 4.729)" fill="#0a194e"/>
        <path id="Path_2077" data-name="Path 2077" d="M331.1,182.525a2.82,2.82,0,0,1,1.547.44,2.993,2.993,0,0,1,1.081,1.22,3.771,3.771,0,0,1,.4,1.76,3.849,3.849,0,0,1-.4,1.773,2.973,2.973,0,0,1-1.081,1.232,2.779,2.779,0,0,1-1.522.44,2.649,2.649,0,0,1-1.22-.289,2.839,2.839,0,0,1-.918-.717v.365a.579.579,0,0,1-.176.428.556.556,0,0,1-.427.176.606.606,0,0,1-.428-.163.625.625,0,0,1-.164-.44v-8.186a.582.582,0,0,1,.164-.428.607.607,0,0,1,.855,0,.579.579,0,0,1,.176.428v3.068a2.522,2.522,0,0,1,.88-.78A2.473,2.473,0,0,1,331.1,182.525Zm-.138,5.759a1.874,1.874,0,0,0,1.044-.3,2.065,2.065,0,0,0,.717-.843,2.686,2.686,0,0,0,.264-1.195,2.605,2.605,0,0,0-.264-1.182,1.975,1.975,0,0,0-.717-.83,1.874,1.874,0,0,0-1.044-.3,1.9,1.9,0,0,0-1.056.3,2.074,2.074,0,0,0-.729.83,2.669,2.669,0,0,0-.252,1.182,2.752,2.752,0,0,0,.252,1.195,2.172,2.172,0,0,0,.729.843A1.9,1.9,0,0,0,330.962,188.284Zm9.46-5.671a.558.558,0,0,1,.428.176.584.584,0,0,1,.176.428v5.432a3,3,0,0,1-.868,2.351,3.3,3.3,0,0,1-2.289.78,4.761,4.761,0,0,1-.918-.088,2.766,2.766,0,0,1-.742-.239c-.311-.142-.465-.336-.465-.578a.659.659,0,0,1,.239-.49.483.483,0,0,1,.314-.113.477.477,0,0,1,.189.038,7.435,7.435,0,0,0,.692.277,2.243,2.243,0,0,0,.7.1,1.745,1.745,0,0,0,1.949-2v-.251a2.274,2.274,0,0,1-.88.7,2.81,2.81,0,0,1-1.22.252,2.073,2.073,0,0,1-1.635-.666,2.569,2.569,0,0,1-.578-1.748v-3.76a.577.577,0,0,1,.163-.428.607.607,0,0,1,.855,0,.584.584,0,0,1,.176.428v3.445a1.79,1.79,0,0,0,.365,1.232,1.444,1.444,0,0,0,1.107.39,1.626,1.626,0,0,0,1.182-.453,1.558,1.558,0,0,0,.465-1.169v-3.445a.577.577,0,0,1,.163-.428A.559.559,0,0,1,340.422,182.613Zm7,6.048a.584.584,0,0,1-.176.428.558.558,0,0,1-.428.176.582.582,0,0,1-.428-.176.6.6,0,0,1-.163-.428v-5.445a.6.6,0,0,1,.163-.428.582.582,0,0,1,.428-.176.558.558,0,0,1,.428.176.584.584,0,0,1,.176.428Zm-.6-6.878a.868.868,0,0,1-.528-.126.553.553,0,0,1-.151-.428v-.2a.506.506,0,0,1,.163-.428.9.9,0,0,1,.528-.126.74.74,0,0,1,.5.138.5.5,0,0,1,.164.415v.2a.51.51,0,0,1-.164.428A.848.848,0,0,1,346.816,181.783Zm5.677.742q2.263,0,2.263,2.716v3.42a.584.584,0,0,1-.176.428.558.558,0,0,1-.428.176.584.584,0,0,1-.428-.176.6.6,0,0,1-.163-.428v-3.408a1.886,1.886,0,0,0-.34-1.182,1.311,1.311,0,0,0-1.107-.44,1.884,1.884,0,0,0-.918.226,1.678,1.678,0,0,0-.641.591,1.5,1.5,0,0,0-.226.8v3.408a.583.583,0,0,1-.176.428.558.558,0,0,1-.427.176.577.577,0,0,1-.428-.163.619.619,0,0,1-.163-.44V183.28a.6.6,0,0,1,.163-.428.584.584,0,0,1,.428-.176.558.558,0,0,1,.427.176.583.583,0,0,1,.176.428v.44a2.651,2.651,0,0,1,.905-.842A2.413,2.413,0,0,1,352.493,182.525Zm7.9-2.062a3.441,3.441,0,0,1,2.025.591,3.651,3.651,0,0,1,1.27,1.6,5.557,5.557,0,0,1,.427,2.213,5.682,5.682,0,0,1-.427,2.238,3.658,3.658,0,0,1-1.27,1.584,3.489,3.489,0,0,1-2.025.578H357.3a.6.6,0,0,1-.6-.6v-7.6a.6.6,0,0,1,.6-.6Zm-.126,7.645a2.2,2.2,0,0,0,1.924-.905,3.994,3.994,0,0,0,.641-2.339,3.918,3.918,0,0,0-.654-2.326,2.178,2.178,0,0,0-1.911-.918h-2.326v6.489Zm11.174-2.389a.563.563,0,0,1-.189.39.616.616,0,0,1-.415.151h-4.426a2.2,2.2,0,0,0,.692,1.471,2.162,2.162,0,0,0,1.5.553,2.34,2.34,0,0,0,.981-.176,2.437,2.437,0,0,0,.667-.453.71.71,0,0,1,.365-.113.457.457,0,0,1,.352.151.482.482,0,0,1,.151.352.622.622,0,0,1-.251.478,2.956,2.956,0,0,1-.968.616,3.186,3.186,0,0,1-1.232.252,3.674,3.674,0,0,1-1.8-.428,3.032,3.032,0,0,1-1.195-1.195,3.591,3.591,0,0,1-.415-1.735,3.829,3.829,0,0,1,.428-1.848,3.2,3.2,0,0,1,1.144-1.232,2.959,2.959,0,0,1,3.043-.013A3.155,3.155,0,0,1,371,184.085,3.265,3.265,0,0,1,371.437,185.719Zm-3.081-2.087a1.844,1.844,0,0,0-1.9,1.622h3.71v-.1a1.528,1.528,0,0,0-.6-1.094A1.863,1.863,0,0,0,368.356,183.632Zm9.222,4.7a.506.506,0,0,1,.138.352.6.6,0,0,1-.189.44.583.583,0,0,1-.905-.088l-1.685-2.125-1.66,2.125a.575.575,0,0,1-.214.189.591.591,0,0,1-.264.063.631.631,0,0,1-.4-.151.5.5,0,0,1-.176-.377.533.533,0,0,1,.138-.377l1.886-2.351-1.936-2.439a.565.565,0,0,1-.126-.352.579.579,0,0,1,.176-.428.611.611,0,0,1,.428-.176.587.587,0,0,1,.49.251L375,185.065l1.622-2.163a.566.566,0,0,1,.478-.264.547.547,0,0,1,.4.163.482.482,0,0,1,.163.365.556.556,0,0,1-.138.39l-1.861,2.351Z" transform="translate(5.207 10.297)" fill="rgba(26,42,209,0.5)"/>
      </g>
    </g>
  </g>
</svg>
